<svg width="768" height="131" viewBox="0 0 768 131" fill="none" xmlns="http://www.w3.org/2000/svg">
<path d="M0 14.2296C0 2.63757 7.71905 0 15.2608 0H23.4932C32.239 0 36.3552 3.51676 39.2767 13.1783L63.7966 94.3032H64.1419L88.3258 13.1879C91.238 3.52632 95.3542 0.00953663 104.1 0.00953663H111.987C119.538 0.00953663 127.257 2.64713 127.257 14.2391V116.952C127.257 124.148 123.822 131 114.731 131C105.64 131 102.215 124.148 102.215 116.952V38.589H101.869L75.6318 122.523C73.7651 128.496 69.4529 130.952 63.6286 130.952C57.8043 130.952 53.5107 128.496 51.6253 122.523L25.3786 38.589H25.0333V116.952C25.0333 124.148 21.6078 131 12.5166 131C3.42551 131 0 124.148 0 116.952V14.2296Z" fill="black"/>
<path d="M233.929 118.312C233.929 125.957 230.522 130.999 222.699 130.999C214.875 130.999 211.468 125.957 211.468 118.312V115.001H211.126C204.154 124.396 195.136 130.999 181.017 130.999C166.047 130.999 149.715 123.345 149.715 97.621V48.2533C149.715 41.4698 152.437 35.5566 162.13 35.5566C171.824 35.5566 174.555 41.4698 174.555 48.2533V92.5782C174.555 102.834 179.49 110.138 190.202 110.138C195.295 110.028 200.139 107.865 203.677 104.12C207.216 100.375 209.161 95.3522 209.089 90.1467V48.2533C209.089 41.4698 211.811 35.5566 221.504 35.5566C231.198 35.5566 233.929 41.4698 233.929 48.2533V118.312Z" fill="black"/>
<path d="M287.603 35.5566C306.289 35.5566 325.158 43.2083 325.158 54.8514C325.158 60.7628 321.293 65.9743 314.899 65.9743C305.3 65.9743 304.97 54.3312 289.481 54.3312C280.898 54.3312 275.347 56.762 275.347 62.1532C275.347 68.0551 280.898 69.4454 288.473 71.1857L298.741 73.6165C312.71 76.9174 329.371 83.0085 329.371 100.733C329.371 121.409 310.017 130.999 291.505 130.999C269.283 130.999 250.772 120.747 250.772 108.234C250.772 102.672 253.803 97.6309 260.701 97.6309C271.308 97.6309 272.315 113.275 290.488 113.275C299.245 113.275 304.796 109.274 304.796 104.063C304.796 97.6309 299.41 96.5905 290.662 94.33L276.181 90.6791C261.882 87.0282 250.772 80.9466 250.772 63.9124C250.744 43.2083 270.602 35.5566 287.603 35.5566Z" fill="black"/>
<path d="M359.315 0C361.906 0 364.439 0.780438 366.593 2.24244C368.747 3.70538 370.427 5.78335 371.417 8.21494C372.409 10.6475 372.668 13.3234 372.163 15.9042C371.658 18.486 370.41 20.8577 368.578 22.719C366.746 24.5792 364.412 25.8473 361.87 26.3606C359.33 26.8739 356.696 26.6106 354.301 25.603C351.908 24.5963 349.862 22.89 348.422 20.7018C346.983 18.5136 346.215 15.9403 346.215 13.3082C346.215 9.77866 347.595 6.39363 350.052 3.8974C352.508 1.40212 355.841 0 359.315 0ZM346.767 47.8619C346.767 41.0462 349.518 35.1051 359.315 35.1051C369.112 35.1051 371.872 41.0462 371.872 47.8619V118.253C371.872 125.059 369.121 131 359.315 131C349.509 131 346.767 125.059 346.767 118.253V47.8619Z" fill="black"/>
<path d="M426.701 27.7499H400.126C392.045 27.7499 385.514 23.5361 385.514 15.7224C385.514 7.90881 392.045 3.74219 400.089 3.74219H481.353C489.415 3.74219 495.928 7.90881 495.928 15.7224C495.928 23.5361 489.396 27.7027 481.353 27.7027H454.815V116.761C454.815 125.264 449.329 130.999 440.763 130.999C432.197 130.999 426.701 125.274 426.701 116.761V27.7499Z" fill="#16A34A"/>
<path d="M506.278 88.0559C506.278 101.443 514.945 111.179 529.676 111.179C548.735 111.179 548.735 98.6617 558.958 98.6617C565.022 98.6617 569.332 103.875 569.332 108.577C569.332 123.875 544.897 130.999 529.648 130.999C494.301 130.999 480.957 107.006 480.957 84.9338C480.957 55.3775 498.8 35.5566 528.78 35.5566C557.893 35.5566 574.528 56.2479 574.528 77.1095C574.528 85.8042 571.926 88.0559 563.438 88.0559H506.278ZM550.603 73.4575C549.216 61.811 540.55 53.2866 529.289 53.2866C516.643 53.2866 509.013 61.1109 506.241 73.4575H550.603Z" fill="black"/>
<path d="M632.087 35.5566C652.716 35.5566 668.101 47.5532 668.101 59.3795C668.101 66.674 662.856 70.3259 656.599 70.3259C644.932 70.3259 649.164 55.3775 631.406 55.3775C621.772 55.3775 610.445 62.1611 610.445 85.1041C610.445 100.923 617.714 111.179 631.24 111.179C648.483 111.179 644.766 94.8394 657.786 94.8394C664.043 94.8394 668.101 99.5699 668.101 104.575C668.101 115.701 655.927 130.999 630.568 130.999C600.13 130.999 585.758 111.699 585.758 85.1041C585.758 55.8979 601.823 35.5566 632.087 35.5566Z" fill="black"/>
<path d="M683.072 12.8248C683.072 4.39596 688.004 0 695.49 0C702.976 0 707.899 4.39596 707.899 12.8248V48.1168H708.241C713.173 41.4272 721.844 34.5944 736.001 34.5944C750.964 34.5944 767.287 42.3256 767.287 68.3096V118.185C767.287 125.027 764.566 131 754.878 131C745.19 131 742.414 124.999 742.414 118.185V73.3936C742.414 63.0344 737.482 55.6568 726.776 55.6568C721.684 55.7677 716.841 57.9533 713.305 61.7386C709.768 65.5239 707.825 70.6003 707.899 75.8592V118.185C707.899 125.027 705.178 131 695.49 131C685.802 131 683.072 125.027 683.072 118.185V12.8248Z" fill="black"/>
</svg>
